PathFileType  4	(X/Y/Z) /Volumes/SIMONE/Promoveren/VU_PerturbationExperiments_2024/Data_MetingenApril2024/SUB01/trc/fast_small
DataRate	CameraRate	NumFrames	NumMarkers	Units	OrigDataRate	OrigDataStartFrame	OrigNumFrames
100.0	100.0	7	45	m	100.0	200	799
Frame#	Time	LCAL			RCAL			C7			LSHO			RTIB2			RFEM2			LFEM2			RTIB3			RFEM1			LSIPS			RTIB1			LTIB2			RFEM3			RSHO			RKNEE_med			LKNEE_lat			RKNEE_lat			LMTP5			RMTP5			RSIAS			RSIPS			LSIAS			LKNEE_med			LANK_lat			LANK_med			RANK_lat			RANK_med			LUA_1			LLA_1			LEBL_lat			LWRB			LWRA			RUA_1			RLA_1			RELB_lat			RWRB			RWRA			LSHO_bump			L_bump			RPEL_bump			R_bump			LTIB3			LTIB1			LFEM3			LFEM1			
		X1	Y1	Z1	X2	Y2	Z2	X3	Y3	Z3	X4	Y4	Z4	X5	Y5	Z5	X6	Y6	Z6	X7	Y7	Z7	X8	Y8	Z8	X9	Y9	Z9	X10	Y10	Z10	X11	Y11	Z11	X12	Y12	Z12	X13	Y13	Z13	X14	Y14	Z14	X15	Y15	Z15	X16	Y16	Z16	X17	Y17	Z17	X18	Y18	Z18	X19	Y19	Z19	X20	Y20	Z20	X21	Y21	Z21	X22	Y22	Z22	X23	Y23	Z23	X24	Y24	Z24	X25	Y25	Z25	X26	Y26	Z26	X27	Y27	Z27	X28	Y28	Z28	X29	Y29	Z29	X30	Y30	Z30	X31	Y31	Z31	X32	Y32	Z32	X33	Y33	Z33	X34	Y34	Z34	X35	Y35	Z35	X36	Y36	Z36	X37	Y37	Z37	X38	Y38	Z38	X39	Y39	Z39	X40	Y40	Z40	X41	Y41	Z41	X42	Y42	Z42	X43	Y43	Z43	X44	Y44	Z44	X45	Y45	Z45	

200	-1.0000000	-0.4597784	0.1492897	-0.1017788	0.2275977	0.0579028	0.0530358	-0.0994557	1.3675223	-0.0569862	0.0015559	1.4003486	-0.1799297	0.1974427	0.3120082	0.1400061	0.1087591	0.5448176	0.1436361	-0.1455162	0.5915533	-0.1816897	0.1491368	0.2995353	0.1038815	0.0221747	0.6092457	0.1539874	-0.1131297	1.0078897	-0.0798472	0.1577910	0.3678161	0.1342624	-0.2609425	0.3624623	-0.1830065	0.0587693	0.5393999	0.1099196	-0.0575910	1.3503551	0.1886931	0.1953740	0.5106977	0.0314141	-0.1135670	0.4486366	-0.1581481	0.2029823	0.4958900	0.1247837	-0.3322257	0.0496254	-0.1684712	0.3899493	0.0642304	0.1187183	0.0753340	0.9324794	0.0974611	-0.1151327	0.9932862	0.0342413	0.0773278	0.9346106	-0.1219194	-0.1172766	0.4612452	-0.0597954	-0.3913616	0.1548167	-0.1519413	-0.3697572	0.1470208	-0.0708589	0.2799256	0.1015094	0.1021002	0.3029264	0.1177452	0.0148479	-0.0289380	1.2034382	-0.2333202	0.0438874	1.0209969	-0.2637046	0.0105676	1.1064262	-0.2732672	0.1921001	0.9599877	-0.1971302	0.1714600	0.9265644	-0.2422190	-0.0777396	1.1750121	0.1948615	0.0560426	1.0907847	0.2763034	-0.0414027	1.0949396	0.2820954	0.1615981	1.2199699	0.2297185	0.1771525	1.1915852	0.2798519	-0.0046488	1.4073511	-0.2734249	-0.0400759	1.3843541	-0.6919684	-0.0204811	0.9237981	0.2271281	-0.0326833	0.8676657	0.7019864	-0.2934068	0.3978874	-0.1533738	-0.2351990	0.4256138	-0.1768932	-0.1803433	0.6191720	-0.1337129	-0.1585361	0.6950738	-0.1725979
201	-0.9900000	-0.4620828	0.1625778	-0.0993864	0.2153183	0.0591598	0.0539338	-0.0981648	1.3681709	-0.0560748	0.0034410	1.4007992	-0.1781188	0.1952733	0.3146781	0.1398022	0.1084477	0.5457108	0.1432122	-0.1348726	0.5887983	-0.1806138	0.1443915	0.3046128	0.1052194	0.0231589	0.6116527	0.1562833	-0.1108840	1.0086940	-0.0795441	0.1578052	0.3720893	0.1356548	-0.2564252	0.3653731	-0.1808963	0.0574819	0.5418747	0.1102456	-0.0564900	1.3520295	0.1906008	0.1953944	0.5135664	0.0323101	-0.1053698	0.4458671	-0.1570436	0.2077115	0.4991595	0.1242880	-0.3422084	0.0525218	-0.1682850	0.3780245	0.0599020	0.1188093	0.0763427	0.9339570	0.0997435	-0.1140148	0.9950261	0.0346877	0.0788047	0.9359682	-0.1196755	-0.1087191	0.4582175	-0.0575858	-0.3945859	0.1624546	-0.1515792	-0.3728745	0.1529985	-0.0705858	0.2692891	0.1010083	0.1034118	0.2927275	0.1172710	0.0164122	-0.0279434	1.2047591	-0.2307053	0.0428727	1.0213749	-0.2615624	0.0106318	1.1073563	-0.2707185	0.1906645	0.9581818	-0.1960507	0.1695091	0.9250824	-0.2412396	-0.0711056	1.1755654	0.1993239	0.0654370	1.1006881	0.2803553	-0.0318268	1.0983204	0.2878868	0.1601044	1.2367500	0.2293408	0.1789093	1.2102895	0.2794214	-0.0026355	1.4067271	-0.2723635	-0.0405314	1.3824067	-0.6901040	-0.0189791	0.9246505	0.2289683	-0.0286139	0.8640686	0.7036113	-0.2871848	0.4013218	-0.1503658	-0.2282979	0.4275362	-0.1741095	-0.1745950	0.6162932	-0.1310232	-0.1538863	0.6920231	-0.1707067
202	-0.9800000	-0.4624148	0.1763007	-0.0981388	0.2026618	0.0601102	0.0547721	-0.0969849	1.3691467	-0.0552610	0.0053475	1.4019086	-0.1763460	0.1912313	0.3170030	0.1417786	0.1083423	0.5480043	0.1441995	-0.1271323	0.5857437	-0.1774839	0.1384890	0.3089151	0.1096847	0.0237524	0.6146047	0.1573273	-0.1090313	1.0095118	-0.0791161	0.1564216	0.3761891	0.1383826	-0.2496646	0.3682855	-0.1788977	0.0584106	0.5457700	0.1100559	-0.0553980	1.3540945	0.1924109	0.1961569	0.5168793	0.0340142	-0.0952921	0.4427714	-0.1561949	0.2106795	0.5015840	0.1246709	-0.3524745	0.0570452	-0.1678302	0.3656228	0.0562074	0.1192201	0.0772569	0.9361559	0.1021128	-0.1128997	0.9967396	0.0350874	0.0794128	0.9368920	-0.1178575	-0.0982799	0.4549707	-0.0557852	-0.3960460	0.1708145	-0.1508788	-0.3741391	0.1595431	-0.0701676	0.2579620	0.1005262	0.1044774	0.2819591	0.1170662	0.0177752	-0.0271332	1.2061782	-0.2277422	0.0418076	1.0221731	-0.2595707	0.0107942	1.1086537	-0.2681375	0.1888148	0.9562651	-0.1950856	0.1668039	0.9236634	-0.2404212	-0.0635452	1.1773776	0.2028349	0.0748980	1.1110967	0.2842555	-0.0219260	1.1023786	0.2937032	0.1578183	1.2528786	0.2288572	0.1799538	1.2286630	0.2784905	-0.0009582	1.4078191	-0.2701662	-0.0402849	1.3811907	-0.6881957	-0.0175650	0.9258095	0.2309365	-0.0245712	0.8618814	0.7051535	-0.2789304	0.4047553	-0.1475608	-0.2192148	0.4290438	-0.1712796	-0.1675322	0.6127313	-0.1281044	-0.1483810	0.6887151	-0.1685785
203	-0.9700000	-0.4603687	0.1909278	-0.0971912	0.1900123	0.0612310	0.0557881	-0.0959051	1.3702352	-0.0545752	0.0070927	1.4032069	-0.1745861	0.1867289	0.3189364	0.1456731	0.1103361	0.5516974	0.1476861	-0.1185187	0.5820599	-0.1744600	0.1333085	0.3121622	0.1144885	0.0246537	0.6178516	0.1581014	-0.1074941	1.0105721	-0.0789030	0.1536640	0.3790958	0.1423542	-0.2409185	0.3708351	-0.1775629	0.0621792	0.5483942	0.1139051	-0.0530765	1.3559728	0.1926232	0.1986208	0.5197316	0.0361619	-0.0927184	0.4392053	-0.1521676	0.2110173	0.5032811	0.1262978	-0.3639342	0.0630557	-0.1666419	0.3531257	0.0529484	0.1195469	0.0777084	0.9388366	0.1043122	-0.1122646	0.9985717	0.0354771	0.0804177	0.9380977	-0.1154128	-0.0859943	0.4514975	-0.0543327	-0.3955296	0.1800014	-0.1500293	-0.3735737	0.1669963	-0.0694707	0.2464601	0.1001195	0.1060659	0.2619398	0.1177610	0.0233999	-0.0253731	1.2085289	-0.2231899	0.0401486	1.0232528	-0.2576977	0.0104089	1.1102590	-0.2656593	0.1861738	0.9541912	-0.1945467	0.1632708	0.9223105	-0.2398111	-0.0565744	1.1791454	0.2073522	0.0841043	1.1219321	0.2879580	-0.0117587	1.1072755	0.2994821	0.1554906	1.2679316	0.2279025	0.1806002	1.2462538	0.2770408	0.0013840	1.4088351	-0.2686523	-0.0374083	1.3803063	-0.6856252	-0.0163270	0.9272441	0.2327499	-0.0205701	0.8609341	0.7067283	-0.2684046	0.4079086	-0.1453298	-0.2078786	0.4301784	-0.1688370	-0.1593359	0.6086711	-0.1250722	-0.1420904	0.6846756	-0.1660492
204	-0.9600000	-0.4549903	0.2063994	-0.0956660	0.1771953	0.0619842	0.0566773	-0.0976959	1.3724488	-0.0551400	0.0071919	1.4052223	-0.1732773	0.1831204	0.3197797	0.1501733	0.1137091	0.5559079	0.1520785	-0.1090060	0.5778842	-0.1718520	0.1286354	0.3143948	0.1197097	0.0273120	0.6212967	0.1613819	-0.1064730	1.0112231	-0.0783998	0.1506428	0.3808307	0.1468344	-0.2299411	0.3727201	-0.1765870	0.0639417	0.5506151	0.1187648	-0.0517695	1.3592879	0.1945908	0.2006467	0.5218020	0.0385124	-0.0800955	0.4362702	-0.1508727	0.2093298	0.5042926	0.1282217	-0.3712717	0.0703737	-0.1657109	0.3391833	0.0499519	0.1187345	0.0782734	0.9418472	0.1066561	-0.1117347	1.0003688	0.0359151	0.0814110	0.9394990	-0.1128566	-0.0721839	0.4477599	-0.0530626	-0.3895857	0.1877469	-0.1474995	-0.3705915	0.1750001	-0.0685934	0.2346721	0.0997637	0.1070493	0.2487523	0.1169367	0.0248546	-0.0248472	1.2107863	-0.2204517	0.0383387	1.0243805	-0.2558537	0.0100393	1.1119336	-0.2631419	0.1819987	0.9522105	-0.1952995	0.1595416	0.9207664	-0.2394023	-0.0495691	1.1812697	0.2118116	0.0931914	1.1329743	0.2913258	-0.0014235	1.1127664	0.3053655	0.1528917	1.2825024	0.2269017	0.1809865	1.2631176	0.2750741	0.0033163	1.4103986	-0.2669934	-0.0353894	1.3806325	-0.6838315	-0.0152137	0.9288881	0.2344997	-0.0162464	0.8613641	0.7081944	-0.2564152	0.4103823	-0.1439725	-0.1949674	0.4306093	-0.1671940	-0.1499718	0.6035506	-0.1222424	-0.1349187	0.6801300	-0.1633930
205	-0.9500000	-0.4460593	0.2220122	-0.0940217	0.1640991	0.0626096	0.0572664	-0.0974465	1.3739244	-0.0542879	0.0080124	1.4068199	-0.1718056	0.1790137	0.3201663	0.1525208	0.1167245	0.5592690	0.1564557	-0.0986576	0.5735407	-0.1701540	0.1234627	0.3159272	0.1247056	0.0305316	0.6244645	0.1670460	-0.1058405	1.0118073	-0.0777446	0.1478477	0.3817366	0.1514224	-0.2183226	0.3739804	-0.1750426	0.0656722	0.5529729	0.1244854	-0.0509579	1.3611779	0.1959143	0.2018120	0.5225606	0.0401463	-0.0669520	0.4337399	-0.1492289	0.2066122	0.5045617	0.1302085	-0.3762589	0.0783278	-0.1643959	0.3263526	0.0485588	0.1184681	0.0785532	0.9449616	0.1088195	-0.1112599	1.0019014	0.0365144	0.0821686	0.9410721	-0.1103331	-0.0571809	0.4438980	-0.0513500	-0.3840555	0.1973505	-0.1463890	-0.3650289	0.1831378	-0.0679540	0.2224897	0.0993397	0.1075430	0.2344487	0.1171225	0.0239374	-0.0246717	1.2131476	-0.2180308	0.0361945	1.0255556	-0.2541940	0.0094596	1.1136915	-0.2607509	0.1773513	0.9499224	-0.1950580	0.1552021	0.9193009	-0.2391351	-0.0424664	1.1837687	0.2163116	0.1019536	1.1441296	0.2943728	0.0092103	1.1186632	0.3109167	0.1498819	1.2961330	0.2259329	0.1812154	1.2791834	0.2728296	0.0059223	1.4116693	-0.2657158	-0.0326108	1.3810173	-0.6821691	-0.0145158	0.9306504	0.2360785	-0.0130001	0.8627009	0.7090950	-0.2424820	0.4128182	-0.1412179	-0.1779142	0.4309602	-0.1677896	-0.1429692	0.5976738	-0.1177038	-0.1273221	0.6751047	-0.1608242
206	-0.9400000	-0.4331208	0.2370414	-0.0923189	0.1504220	0.0628462	0.0575793	-0.0972669	1.3756062	-0.0534469	0.0088747	1.4088128	-0.1702554	0.1744829	0.3201660	0.1538242	0.1174249	0.5610852	0.1604676	-0.0877477	0.5690390	-0.1687665	0.1178784	0.3169295	0.1296974	0.0337635	0.6268726	0.1733487	-0.1055415	1.0122396	-0.0769217	0.1448032	0.3824150	0.1545696	-0.2018916	0.3751934	-0.1750213	0.0654395	0.5542535	0.1311975	-0.0499017	1.3639883	0.1975013	0.2004274	0.5222252	0.0409346	-0.0527590	0.4315506	-0.1470231	0.2031109	0.5043094	0.1316326	-0.3785538	0.0866247	-0.1627674	0.3130999	0.0479423	0.1180901	0.0788877	0.9479096	0.1107254	-0.1111556	1.0033273	0.0372803	0.0823041	0.9426054	-0.1082861	-0.0414630	0.4405807	-0.0493380	-0.3760870	0.2049852	-0.1444168	-0.3565879	0.1902526	-0.0668197	0.2096539	0.0995137	0.1074125	0.2217560	0.1164325	0.0238818	-0.0244451	1.2153935	-0.2162037	0.0336215	1.0268081	-0.2524692	0.0085934	1.1155061	-0.2584980	0.1735745	0.9475715	-0.1948820	0.1504021	0.9179582	-0.2392298	-0.0354311	1.1864566	0.2209074	0.1105546	1.1553988	0.2968168	0.0198815	1.1249124	0.3163454	0.1462312	1.3091830	0.2254430	0.1801302	1.2948868	0.2709324	0.0070673	1.4138607	-0.2635621	-0.0297723	1.3818303	-0.6806193	-0.0145136	0.9326515	0.2375867	-0.0089853	0.8647003	0.7104934	-0.2283697	0.4152655	-0.1397973	-0.1633026	0.4310440	-0.1668930	-0.1326310	0.5915329	-0.1160710	-0.1195811	0.6695366	-0.1588635
